<svg viewBox="0 0 616 67" fill="none" xmlns="http://www.w3.org/2000/svg"><g clip-path="url(#clip0_607_45)" fill="#000"><path d="M38.96 55.32a.92.92 0 0 1-.85.51H2.9a1 1 0 0 1-.86-.51 1 1 0 0 1 0-1l6.5-9.95c3.79-1.33 7.6-.6 11.31 2.19l.49.37c3.5 2.81 8.15 4.23 13.84 4.23.852.018 1.704-.02 2.55-.11l2.14 3.27a1 1 0 0 1 .09 1zm-22.46-23a1 1 0 0 0 .15-.53v-6.74a1 1 0 1 0 0-1.93h-1a1 1 0 0 1-1-1 .93.93 0 0 1 .3-.68.87.87 0 0 1 .66-.28h3.85v17.32a1 1 0 1 0 1.92 0V21.2h3.85a1 1 0 0 1 .68.28 1 1 0 0 1 .28.68.94.94 0 0 1-.29.68.87.87 0 0 1-.67.28h-1a1 1 0 0 0 0 1.93v6.73c.01.186.06.367.15.53l6.35 9.7a13.76 13.76 0 0 0-10.27 2.65 13.75 13.75 0 0 0-10.35-2.65l6.39-9.69zm19.06 16.91c-5.53.22-10-.91-13.39-3.35a11.26 11.26 0 0 1 10.29-1.48l3.1 4.83zm-24-37.46c-1-1-2.23-4.9-3-8 3.06.8 7 2.07 8 3a3.48 3.48 0 0 1 .51 4.28l-3.41-3.2a1 1 0 0 0-1.35 1.35l3.2 3.22a3.5 3.5 0 0 1-4-.65h.05zm13.16-6.42c1-1 4.91-2.22 8-3-.8 3.06-2.07 7-3 8a3.47 3.47 0 0 1-4.26.5l3.14-3.12a1 1 0 1 0-1.36-1.38L24.1 9.49a3.5 3.5 0 0 1 .57-4.15l.05.01zM40.58 53.3l-6.73-10.24-.06-.09-7.46-11.47v-6.65a2.88 2.88 0 0 0-1-5.6h-3.87v-1.77a6.45 6.45 0 0 1 1.93-4.56l.71-.71a5.41 5.41 0 0 0 6.91-.6c1.87-1.93 3.72-9.56 3.92-10.43a1.001 1.001 0 0 0-.25-.94 1 1 0 0 0-.94-.24c-.87.22-8.55 2.05-10.43 3.93a5.41 5.41 0 0 0-.6 6.91l-.72.71a8.309 8.309 0 0 0-1.92 2.89 8.506 8.506 0 0 0-1.1-1.36l-.68-.68a5.41 5.41 0 0 0-.52-7C15.85 3.48 8.22 1.68 7.34 1.47a1 1 0 0 0-1.15 1.16c.2.87 2 8.54 3.92 10.42a5.39 5.39 0 0 0 6.79.7l.71.7a6.48 6.48 0 0 1 1.92 4.53v.29h-3.84a2.88 2.88 0 0 0-1 5.6v6.61l-7.5 11.49-6.73 10.3a2.88 2.88 0 0 0 2.41 4.49h35.21a2.89 2.89 0 0 0 2.42-4.47l.08.01zM57.88 56.16l-1.89-4.2c-1.31-2.8-1.81-3.45-1.81-4.3a1.12 1.12 0 0 1 1.06-1.15c.69 0 1.39.8 1.79 1.2 3.81 4.1 8.26 7.3 14.21 7.3 5.35 0 8.25-2.55 8.25-6.45 0-4.65-4.05-6.1-10.4-8-6.5-1.95-13.5-4-13.5-10.9 0-4.75 4.15-8.55 10.1-8.55 4.1 0 6.25 1.25 7.35 1.25 1.1 0 1.1-1.45 2.25-1.45.9 0 1.4.95 2.4 2.6l1.4 2.35c1.6 2.7 2 3.65 2 4.25a.93.93 0 0 1-.9.9c-.65 0-1.2-.55-1.85-1.2-3.6-3.7-7.45-5.8-12.1-5.8-3.6 0-5.95 1.85-5.95 4.75 0 3.8 3.8 4.95 10.25 6.9 6.85 2.05 13.75 4.35 13.75 12.1 0 6.3-5.15 10.15-12.55 10.15-5 0-8.15-1.55-9.35-1.55-1.2 0-1.45 1.75-2.6 1.75-.85 0-1.33-.7-1.91-1.95zM115.539 54.71c0 .95-.9 1.45-4.05 2.2-1.14.35-2.312.585-3.5.7-.9 0-1.05-.9-1.05-1.7v-2.9a9.379 9.379 0 0 1-8.48 4.84c-5.65 0-8.35-3.8-8.35-9.7V39.5c0-3-4-1.85-4-3.65 0-.9.86-1.4 3.81-2.5a12.31 12.31 0 0 1 3.55-1c1.05 0 1.15 1 1.15 1.8V47.5c0 4 1.1 6.75 5.35 6.75 3.45 0 6.95-2.55 6.95-7.6v-7.1c0-3-4.4-1.75-4.4-3.65 0-.85.9-1.35 4.2-2.55a13.49 13.49 0 0 1 3.65-1c.9 0 1 .9 1 1.8v16.7c.09 3 4.17 2.21 4.17 3.86zM120.78 56.31l-1.5-3.2c-.9-1.85-1.35-2.55-1.35-3.2a.936.936 0 0 1 .248-.765.932.932 0 0 1 .752-.285 2.64 2.64 0 0 1 1.53.99c3.2 3.2 6.7 5.4 10.4 5.4 3.31 0 5.36-1.85 5.36-4.15 0-2.8-2.75-3.4-7.3-4.45-4.86-1.2-10.31-2.75-10.31-7.7 0-3.8 3.35-6.8 8.4-6.8 2.81 0 5 .9 5.76.9.76 0 .85-1 1.8-1 .95 0 1.3.75 1.85 1.7l1.65 2.7c.533.75.907 1.6 1.1 2.5a1 1 0 0 1-.95 1c-.5 0-1.05-.5-1.55-.95-2.55-2.35-5.95-4.3-9.2-4.3-2.66 0-4.31 1.35-4.31 3.2 0 2.55 2.35 3.1 7.31 4.3 5.2 1.3 10.3 2.8 10.3 8.15 0 4.55-4.05 7.45-9.8 7.45-3.4 0-5.71-1.1-6.51-1.1-1 0-1.05 1.25-2.15 1.25-.78-.04-1.18-.89-1.53-1.64zM161.689 53.01a3.058 3.058 0 0 1-1 1.95 9.32 9.32 0 0 1-7 2.8c-3.86 0-6.56-2.15-6.56-4.7 0-1 .1-4.9.1-8.35v-9.4h-3.25c-.9 0-1.45-.4-1.45-1.15 0-.75.5-1.05 1.3-1.4 3-1.25 4.35-3.05 5.5-7.6.45-1.3.75-1.9 1.5-1.9.55 0 .9.4.9 1.3v8.1h8.56c.55 0 .85.25.85.7a7.95 7.95 0 0 1-.15 1.15.827.827 0 0 1-.281.59.843.843 0 0 1-.619.21h-8.36v14.54c0 3.7 1.46 4.8 3.5 4.8s3.21-1.2 4.21-2.05a1.913 1.913 0 0 1 1.2-.65 1 1 0 0 1 1.05 1.06zM189.99 55.16c0 .95-1.9 2.45-4.25 2.45-2 0-3.86-1.2-4.61-3.8a11.88 11.88 0 0 1-9.15 4c-5.15 0-8.5-3.05-8.5-7.45s3.8-7.85 10.15-7.85c2.037.015 4.059.336 6 .95l-.1-.65c-.75-5.55-2.71-7.25-6-7.25a9.273 9.273 0 0 0-6.1 2.85 2.165 2.165 0 0 1-1.25.6 1.001 1.001 0 0 1-1-1 2.822 2.822 0 0 1 .8-1.6 11.748 11.748 0 0 1 9-4.3c6.46 0 8.06 4.45 8.76 9.3l1.25 8.4c.5 3.75 1.6 4.15 4.2 4.65.55.05.8.3.8.7zm-9.36-4.2l-.7-4.95a14.996 14.996 0 0 0-5.3-1c-4.2 0-6.4 1.9-6.4 4.9 0 3 2.15 4.85 5.25 4.85a9.3 9.3 0 0 0 7.15-3.8zM191.33 56.36c0-1.9 3.15-.45 3.15-4.5V39.61c0-3.1-3.55-1.4-3.55-3.35 0-.8.9-1.35 3.5-2.6s3.1-1.4 3.5-1.4c.8 0 1 .65 1 1.75v17.84c0 4.05 3.25 2.6 3.25 4.5a1.002 1.002 0 0 1-1.1 1c-1.1 0-2.6-.15-4.4-.15-1.8 0-3.15.15-4.2.15a1.063 1.063 0 0 1-1.042-.584 1.044 1.044 0 0 1-.108-.406zm1.35-32a4.375 4.375 0 0 1 4.4-4 2.59 2.59 0 0 1 2.8 2.55c0 1.9-2.05 4-4.55 4a2.522 2.522 0 0 1-2.65-2.55zM234.039 56.36c0 .7-.61 1-1.41 1-1.29 0-2.34-.15-4.34-.15s-2.95.15-4.31.15c-.9 0-1.4-.45-1.4-1.05 0-1.8 3.35-.6 3.35-3.7 0-.4-.09-1-.15-1.5l-1.19-8.45c-.41-2.55-1.31-6.75-5.26-6.75-3 0-6.25 2.4-6.25 7.5v8.44c0 4.05 3.25 2.6 3.25 4.5a1.001 1.001 0 0 1-1.1 1c-1.1 0-2.6-.15-4.4-.15-1.8 0-3.15.15-4.2.15a1.056 1.056 0 0 1-1.09-.578 1.068 1.068 0 0 1-.11-.422c0-1.9 3.15-.45 3.15-4.5V39.61c0-3.1-3.55-1.4-3.55-3.35 0-.8.9-1.35 3.5-2.6s3.1-1.4 3.5-1.4c.8 0 1.05.65 1.05 1.75v2.95a9.314 9.314 0 0 1 8.05-4.85c6 0 7.41 5.8 8 9.9l1.29 9.35c.57 4.7 3.62 3.05 3.62 5zM261.93 55.16c0 .95-1.9 2.45-4.25 2.45-2.05 0-3.85-1.2-4.6-3.8a11.893 11.893 0 0 1-9.15 4c-5.15 0-8.5-3.05-8.5-7.45s3.8-7.85 10.15-7.85c2.019.02 4.025.34 5.95.95l-.1-.65c-.75-5.55-2.7-7.25-6-7.25a9.269 9.269 0 0 0-6.1 2.85 2.17 2.17 0 0 1-1.25.6.998.998 0 0 1-1-1 2.816 2.816 0 0 1 .8-1.6 11.75 11.75 0 0 1 9.05-4.3c6.45 0 8 4.45 8.75 9.3l1.25 8.4c.5 3.75 1.6 4.15 4.2 4.65.55.05.8.3.8.7zm-9.35-4.2l-.7-4.95a15.085 15.085 0 0 0-5.3-1c-4.2 0-6.4 1.9-6.4 4.9 0 3 2.15 4.85 5.25 4.85a9.3 9.3 0 0 0 7.15-3.8zM290.129 44.51c0 8.15-5.75 13.35-12.6 13.35-4.05 0-6.1-1.6-7.6-1.6s-2.75 1.45-3.7 1.45c-.7 0-1.1-.55-1.1-1.3V26.76c0-3.1-3.85-1.4-3.85-3.35 0-.8.85-1.4 3.6-2.65 2.5-1.2 3.15-1.35 3.75-1.35.6 0 1 .65 1 1.3v16.05a10.88 10.88 0 0 1 9.2-4.8c6.63 0 11.3 5 11.3 12.55zm-4.75 1.6c0-6.05-3.35-10.7-8.25-10.7-3.85 0-7.5 2.85-7.5 8.05v3.65c0 5 3.35 8.1 7.9 8.1 4.35 0 7.85-2.95 7.85-9.1zM293.281 56.36c0-1.9 3.15-.45 3.15-4.5v-25.1c0-3.1-3.55-1.4-3.55-3.35 0-.8.85-1.4 3.5-2.65s3.05-1.35 3.5-1.35c.8 0 1.05.65 1.05 1.75v30.69c0 4.05 3.2 2.6 3.2 4.5a.992.992 0 0 1-.311.725.996.996 0 0 1-.739.275c-1.1 0-2.6-.15-4.4-.15-1.8 0-3.15.15-4.25.15a1.003 1.003 0 0 1-1.059-.572 1.003 1.003 0 0 1-.091-.418zM330.73 52.01a2.565 2.565 0 0 1-.45 1.2c-1.85 2.65-6.2 4.9-10.55 4.9-6.8 0-12.55-4.75-12.55-13.1 0-7.85 5.75-13.3 12.3-13.3a9.892 9.892 0 0 1 10.25 9.6c0 1.05-.3 1.35-1 1.6l-16.05 4.8c1.35 4.1 4.6 7 8.75 7a9.41 9.41 0 0 0 7.05-3.1c.319-.41.785-.678 1.3-.75a1.079 1.079 0 0 1 .95 1.15zm-18.85-8.85c-.002.67.048 1.338.15 2l11.55-3.6c.9-.25 1.15-.5 1.15-1.35a6.004 6.004 0 0 0-5.9-5.6c-3.95 0-6.95 3.4-6.95 8.55zM375.781 33.71c0 7.1-4.8 11.95-15.8 11.95-4.7 0-5-.5-5 .55v6c0 3.45 4.1 2.05 4.1 4.15 0 .55-.35 1-1.25 1-1.25 0-3.3-.15-5.4-.15-1.9 0-3.4.15-4.55.15-.85 0-1.25-.45-1.25-1 0-1.95 3.35-.7 3.35-4.05V26.76c0-3.35-3.35-2.15-3.35-4.1 0-.5.4-1 1.3-1 1.15 0 2.6.15 4.5.15s5.6-.25 8-.25c9.75 0 15.35 4.5 15.35 12.15zm-5.6.05c0-6.25-3.85-9.4-10.5-9.4-4.7 0-4.7 1.6-4.7 2.55v13.94c0 1.55 1.35 2.05 4.4 2.05 7.85-.05 10.8-3.54 10.8-9.14zM378.179 56.36c0-1.9 3.15-.45 3.15-4.5v-25.1c0-3.1-3.55-1.4-3.55-3.35 0-.8.85-1.4 3.5-2.65s3.05-1.35 3.5-1.35c.8 0 1.05.65 1.05 1.75v30.69c0 4.05 3.2 2.6 3.2 4.5a1.008 1.008 0 0 1-.31.725.99.99 0 0 1-.74.275c-1.1 0-2.6-.15-4.4-.15-1.8 0-3.15.15-4.25.15a.999.999 0 0 1-1.15-.99zM418.33 55.16c0 .95-1.9 2.45-4.25 2.45-2 0-3.85-1.2-4.6-3.8a11.893 11.893 0 0 1-9.15 4c-5.15 0-8.5-3.05-8.5-7.45s3.8-7.85 10.15-7.85a20.32 20.32 0 0 1 6 .95l-.1-.65c-.75-5.55-2.7-7.25-6-7.25a9.269 9.269 0 0 0-6.1 2.85 2.17 2.17 0 0 1-1.25.6 1.001 1.001 0 0 1-1-1 2.822 2.822 0 0 1 .8-1.6 11.745 11.745 0 0 1 9.05-4.3c6.45 0 8.05 4.45 8.75 9.3l1.25 8.4c.5 3.75 1.6 4.15 4.2 4.65.5.05.75.3.75.7zm-9.35-4.2l-.7-4.95a15.08 15.08 0 0 0-5.3-1c-4.2 0-6.4 1.9-6.4 4.9 0 3 2.15 4.85 5.25 4.85a9.3 9.3 0 0 0 7.15-3.8z"/><path d="M444.08 33.41c0 1.55-2.6 1.1-3.8 3.95l-9.35 22.05c-2 4.65-4.7 7.35-8.35 7.35a4.72 4.72 0 0 1-3.45-1.1 13.81 13.81 0 0 1-1.55-5.4c0-.75.4-1.35 1-1.35s.8.3 1.25.95c1.45 2.25 2.6 3.35 3.9 3.35 1.7 0 3.3-1.95 4.65-5.25l.3-.75-8.8-19.75c-1.3-2.95-3.8-2.5-3.8-4.05 0-.65.5-.95 1.15-.95 1.3 0 2.65.15 4.8.15 1.9 0 3.3-.15 4.4-.15.8 0 1.3.35 1.3 1.05 0 1.65-2.9 1-2.9 3.3.096.952.349 1.881.75 2.75l5.45 12.75 5.2-12.75a9.767 9.767 0 0 0 .85-2.95c0-2.05-3-1.45-3-3.1 0-.7.5-1.05 1.3-1.05 1 0 2.35.15 3.65.15 1.3 0 2.6-.15 3.85-.15.7 0 1.2.39 1.2.95zM471.58 58.71c0 4.65-5.4 7.95-13.45 7.95-7.9 0-13.3-2.55-13.3-6.35 0-2.1 1.5-4 4.1-5.2a3.802 3.802 0 0 1-3-3.6c0-1.85 1.8-3.5 3.6-4.65a7.113 7.113 0 0 1-3.75-6.3c0-4.75 4.2-8.75 11.75-8.75a18.01 18.01 0 0 1 2.35.15c.65-4.4 3.45-6.55 5-6.55a7.25 7.25 0 0 1 3.9 1.3c.6.4 1.1.85 1.1 1.45s-.4 1.1-1.4 1.1c-2.85 0-5.6.3-6.3 3.15 4 1.15 6.45 3.8 6.45 7.45 0 4.65-4.1 8.7-11.7 8.7a17.71 17.71 0 0 1-5.1-.7c-.95.6-1.85 1.2-1.85 2.1 0 .9.8 1.2 2.7 1.4 4.5.55 9.4 1 11.1 1.2 4.9.45 7.8 2.6 7.8 6.15zm-4.45 1.35c0-1.8-1.65-2.85-5-3.25-3.35-.4-6.7-.7-10-1.1a4.788 4.788 0 0 0-2.85 4.1c0 3 3.3 4.4 9.1 4.4 5.4 0 8.75-2.1 8.75-4.15zm-16.55-20.1c0 3.75 3 6.1 6.9 6.1 3.75 0 6.45-2.15 6.45-5.65 0-3.7-3-6.1-6.9-6.1-3.9 0-6.45 2.2-6.45 5.65zM493.461 34.36a20.236 20.236 0 0 1-.9 4.2c-.25.85-.65 1.35-1.35 1.35-.7 0-1-.55-1.25-1.35-.65-1.55-1.3-2.3-2.35-2.3-2.4 0-6.55 3.85-6.55 10.85v4.74c0 4.05 3.9 2.45 3.9 4.5a.992.992 0 0 1-.687.955 1 1 0 0 1-.413.045c-1.25 0-3-.15-5-.15-1.75 0-3.15.15-4.2.15a1.063 1.063 0 0 1-1.091-.578 1.066 1.066 0 0 1-.109-.422c0-1.9 3.15-.45 3.15-4.5V39.61c0-3.1-3.55-1.4-3.55-3.35 0-.8.9-1.35 3.5-2.6s3.1-1.4 3.5-1.4c.8 0 1.05.65 1.05 1.75v5.15c1.65-4.25 5.3-7.1 8.85-7.1 2.02 0 3.5 1.05 3.5 2.3zM495.08 45.11c0-7.7 5.75-13.4 13.6-13.4 7.65 0 13 5.4 13 13.1 0 7.7-5.8 13.3-13.6 13.3s-13-5.4-13-13zm21.75 1.45c0-6.3-3.75-12.1-9.2-12.1-4.75 0-7.7 3.8-7.7 8.85 0 6.25 3.75 12.1 9.2 12.1 4.75 0 7.7-3.85 7.7-8.85zM553.459 54.71c0 .95-.9 1.45-4.05 2.2-1.14.35-2.312.585-3.5.7-.9 0-1-.9-1-1.7v-2.9a9.372 9.372 0 0 1-8.45 4.8c-5.65 0-8.35-3.8-8.35-9.7v-8.65c0-3-4-1.85-4-3.65 0-.9.85-1.4 3.8-2.5a12.318 12.318 0 0 1 3.55-1c1.05 0 1.15 1 1.15 1.8v13.35c0 4 1.1 6.75 5.35 6.75 3.45 0 7-2.55 7-7.6v-7.1c0-3-4.4-1.75-4.4-3.65 0-.85.9-1.35 4.2-2.55a13.486 13.486 0 0 1 3.65-1c.9 0 1 .9 1 1.8v16.7c-.08 3.04 4.05 2.25 4.05 3.9zM584.83 56.36c0 .7-.6 1-1.4 1-1.3 0-2.35-.15-4.35-.15-2 0-3 .15-4.3.15-.9 0-1.4-.45-1.4-1.05 0-1.8 3.35-.6 3.35-3.7 0-.4-.1-1-.15-1.5l-1.2-8.45c-.4-2.55-1.3-6.75-5.25-6.75-3 0-6.25 2.4-6.25 7.5v8.44c0 4.05 3.25 2.6 3.25 4.5a1.001 1.001 0 0 1-1.1 1c-1.1 0-2.6-.15-4.4-.15-1.8 0-3.15.15-4.2.15a1.06 1.06 0 0 1-1.2-1c0-1.9 3.15-.45 3.15-4.5V39.61c0-3.1-3.55-1.4-3.55-3.35 0-.8.9-1.35 3.5-2.6s3.1-1.4 3.5-1.4c.8 0 1 .65 1 1.75v2.95a9.314 9.314 0 0 1 8.05-4.85c5.95 0 7.4 5.8 7.95 9.9l1.3 9.35c.65 4.7 3.7 3.05 3.7 5zM615.029 54.36c0 .85-1 1.35-3.75 2.35-1.08.504-2.224.857-3.4 1.05-1 0-1-1.15-1-1.8v-2.75a10.65 10.65 0 0 1-9 4.65c-6 0-11.35-4.7-11.35-12.6 0-7.9 5.4-13.3 12.5-13.3a10.999 10.999 0 0 1 7.85 2.95v-8.2c0-3.1-4-1.35-4-3.4 0-.8.9-1.3 3.7-2.55a13.253 13.253 0 0 1 3.75-1.35c.85 0 1.1.8 1.1 1.75v29.35c-.1 3.05 3.6 1.95 3.6 3.85zm-8.2-7.55v-3.15c0-5.7-4.35-9.1-8-9.1-4.8 0-7.55 4.05-7.55 9.25 0 6.7 4.25 10.6 8.35 10.6a7.173 7.173 0 0 0 6.768-4.69 7.179 7.179 0 0 0 .432-2.87v-.04z"/></g><defs><clipPath id="clip0_607_45"><path fill="#fff" d="M0 0h615.03v66.76H0z"/></clipPath></defs></svg>
