<?xml version="1.0" standalone="no"?>
<!DOCTYPE svg PUBLIC "-//W3C//DTD SVG 20010904//EN"
 "http://www.w3.org/TR/2001/REC-SVG-20010904/DTD/svg10.dtd">
<svg version="1.0" xmlns="http://www.w3.org/2000/svg"
 width="1024.000000pt" height="1024.000000pt" viewBox="0 0 1024.000000 1024.000000"
 preserveAspectRatio="xMidYMid meet">
<metadata>
Created by potrace 1.14, written by Peter Selinger 2001-2017
</metadata>
<g transform="translate(0.000000,1024.000000) scale(0.100000,-0.100000)"
fill="#000000" stroke="none">
<path d="M6750 8779 c-502 -136 -640 -178 -865 -266 -225 -87 -327 -145 -417
-234 -62 -63 -85 -94 -121 -170 -58 -121 -71 -180 -71 -309 0 -121 23 -211 81
-323 l36 -67 -90 -93 c-98 -102 -152 -175 -207 -285 l-37 -73 -35 48 c-20 26
-70 83 -112 125 l-76 78 22 37 c75 126 105 232 105 373 0 128 -19 204 -79 320
-50 98 -124 181 -210 236 -185 118 -575 260 -1057 383 -212 55 -241 55 -289 1
-37 -41 -37 -87 3 -243 110 -440 223 -770 342 -1002 83 -160 161 -242 298
-308 206 -101 421 -102 620 -1 l66 33 78 -76 c157 -155 239 -327 252 -535 l6
-87 -294 -3 -295 -3 -65 -32 c-79 -39 -140 -102 -177 -181 -36 -77 -37 -199
-4 -284 30 -73 96 -147 167 -184 l55 -29 0 -416 0 -415 -401 -615 c-221 -338
-420 -643 -444 -679 -23 -36 -123 -189 -222 -340 -99 -151 -311 -477 -473
-724 -161 -246 -302 -471 -312 -500 -16 -40 -19 -69 -16 -137 7 -146 76 -251
206 -312 l67 -32 2305 -3 c2559 -2 2361 -8 2467 64 152 103 199 290 117 469
-15 33 -216 348 -447 700 -231 352 -633 967 -894 1368 l-473 727 0 424 0 424
53 30 c66 37 122 98 156 171 22 48 26 69 26 151 0 83 -3 102 -28 151 -32 67
-118 151 -184 182 -45 21 -64 22 -346 25 l-299 3 5 187 c4 206 14 257 72 379
46 98 85 153 178 250 l78 81 54 -33 c111 -66 252 -96 405 -83 215 17 396 127
504 306 98 164 221 495 335 906 94 339 98 371 41 427 -24 24 -36 29 -77 28
-26 0 -64 -5 -83 -10z m-85 -301 c-2 -7 -20 -71 -40 -143 -102 -368 -227 -697
-313 -828 -60 -91 -202 -157 -337 -157 -69 0 -179 25 -215 50 -12 8 29 53 212
235 240 239 250 253 228 320 -18 55 -62 85 -123 85 l-51 0 -228 -227 -227
-227 -23 50 c-30 68 -36 199 -13 280 22 78 70 158 121 199 116 95 364 195 799
319 208 60 216 62 210 44z m-2869 -222 c337 -96 666 -220 774 -294 66 -44 133
-138 156 -219 22 -77 15 -217 -15 -295 -12 -32 -26 -58 -30 -58 -4 0 -104 90
-222 201 -118 111 -225 205 -238 210 -72 28 -161 -41 -161 -125 0 -39 8 -48
211 -252 116 -116 207 -214 202 -217 -29 -18 -127 -37 -189 -37 -86 0 -174 25
-243 69 -92 60 -175 210 -276 501 -50 145 -165 537 -165 562 0 5 8 7 18 4 9
-2 89 -25 178 -50z m1184 -3293 c0 -1108 1 -1139 19 -1167 26 -39 57 -55 104
-56 47 0 88 23 111 60 15 26 16 130 16 1165 l0 1136 263 -3 c255 -3 263 -4
294 -26 68 -49 65 -151 -6 -199 -29 -20 -47 -23 -123 -23 -89 0 -90 0 -124
-34 -30 -30 -34 -40 -34 -84 0 -39 6 -57 25 -81 14 -16 35 -33 45 -36 19 -6
20 -18 20 -445 0 -241 4 -449 9 -462 5 -13 189 -299 410 -637 221 -337 401
-614 399 -616 -2 -1 -30 1 -63 6 -103 13 -369 2 -492 -20 -219 -41 -473 -144
-657 -266 l-86 -57 -85 56 c-337 224 -765 331 -1150 287 -38 -5 -71 -7 -73 -6
-2 1 178 276 399 611 221 335 408 625 415 644 10 26 13 139 14 461 l0 426 39
6 c123 16 157 167 54 234 -22 15 -45 17 -130 15 -120 -4 -164 7 -194 49 -33
46 -35 97 -7 139 40 58 47 60 331 60 l257 0 0 -1137z m-697 -1748 c267 -47
502 -157 777 -364 169 -128 277 -198 408 -265 205 -104 430 -181 678 -230 249
-50 357 -59 709 -61 l330 -3 142 -218 c129 -197 143 -223 143 -262 0 -59 -46
-107 -111 -117 -24 -3 -1051 -5 -2281 -3 l-2237 3 -28 21 c-39 29 -65 82 -59
122 3 21 105 186 277 450 150 229 320 489 377 577 58 88 123 188 146 223 40
62 42 63 121 87 44 14 116 31 160 39 110 19 339 20 448 1z m2137 -10 c41 -8
107 -24 145 -36 l70 -21 190 -296 c105 -162 191 -301 193 -309 3 -10 -28 -13
-151 -13 -480 0 -894 85 -1242 255 -118 57 -295 162 -295 175 0 7 122 81 187
114 139 69 298 119 458 142 109 16 338 10 445 -11z"/>
</g>
</svg>
